<svg xmlns="http://www.w3.org/2000/svg" viewBox="0 0 321.5 164.13"><defs><style>.cls-1{fill:#13569b;}.cls-2{fill:#169e49;}.cls-3{fill:#6a351b;}.cls-4{fill:#5975b3;}</style></defs><title>logoFomeda</title><g id="Layer_2" data-name="Layer 2"><g id="Layer_1-2" data-name="Layer 1"><path class="cls-1" d="M89.7,117.43c0-7.09,2-12.61,5.93-16.56s9.46-5.93,16.51-5.93q10.85,0,16.71,5.82t5.86,16.3c0,5.09-.85,9.25-2.56,12.51a18.14,18.14,0,0,1-7.41,7.57,24.27,24.27,0,0,1-12.07,2.72,27.74,27.74,0,0,1-12.16-2.34,18.28,18.28,0,0,1-7.81-7.41C90.7,126.74,89.7,122.5,89.7,117.43Zm13.43.07c0,4.38.82,7.52,2.45,9.44a9.29,9.29,0,0,0,13.35.08q2.35-2.83,2.36-10.12c0-4.09-.81-7.08-2.47-9a8.46,8.46,0,0,0-6.71-2.84,8.11,8.11,0,0,0-6.52,2.88Q103.13,110.86,103.13,117.5Z"></path><path class="cls-1" d="M136.14,95.69h17.67l6.81,26.43,6.76-26.43H185v43.43H174V106l-8.46,33.13h-10L147.15,106v33.13h-11Z"></path><path class="cls-1" d="M187.09,95.69h36V105H200.54v6.91h20.9v8.86h-20.9v8.57h23.17v9.83H187.09Z"></path><path class="cls-1" d="M224.78,95.69h19.95a23.62,23.62,0,0,1,9.52,1.6,15.3,15.3,0,0,1,6,4.59,19,19,0,0,1,3.44,7,32,32,0,0,1,1.06,8.43c0,4.64-.51,8.24-1.57,10.79a18.12,18.12,0,0,1-4.4,6.44,14.47,14.47,0,0,1-6.07,3.45,31,31,0,0,1-8,1.18H224.78Zm13.42,9.82v23.74h3.3a14,14,0,0,0,6-.93,6.32,6.32,0,0,0,2.77-3.26q1-2.32,1-7.53c0-4.61-.76-7.76-2.26-9.46s-4-2.56-7.47-2.56Z"></path><path class="cls-1" d="M289.57,132H274.34l-2.13,7.16h-13.7l16.32-43.43h14.65l16.32,43.43H291.73Zm-2.79-9.4L282,106.94l-4.74,15.62Z"></path><rect class="cls-1" x="53.01" y="93.5" width="38.54" height="10.78"></rect><polygon class="cls-1" points="82.58 109.95 82.58 120.72 63.79 120.72 63.79 139.12 53.01 139.12 53.01 109.95 82.58 109.95"></polygon><path class="cls-2" d="M256.61,82.81a1.78,1.78,0,0,1-1.79,1.79H236.66a1.8,1.8,0,0,1-1.81-1.79V38.24a1.79,1.79,0,0,1,1.81-1.79h18.16a1.78,1.78,0,0,1,1.79,1.79Z"></path><path class="cls-1" d="M225.86,162.34a1.78,1.78,0,0,1-1.78,1.79H190.33a1.78,1.78,0,0,1-1.79-1.79V147.72a1.8,1.8,0,0,1,1.79-1.8h33.75a1.8,1.8,0,0,1,1.78,1.8Z"></path><path class="cls-3" d="M303.86,162.34a1.79,1.79,0,0,1-1.79,1.79H268.33a1.79,1.79,0,0,1-1.8-1.79V147.72a1.81,1.81,0,0,1,1.8-1.8h33.74a1.81,1.81,0,0,1,1.79,1.8Z"></path><path class="cls-4" d="M25.58,104.52c0,21.42,14.15,41.07,37.69,56.35C24.7,144.32,0,118.87,0,90.32,0,40.45,75.38,0,168.37,0c68,0,126.56,21.63,153.13,52.75-29.71-22.07-77.95-36.44-132.4-36.44C98.78,16.31,25.58,55.81,25.58,104.52Z"></path></g></g></svg>